<svg version="1.1" id="Layer_1" xmlns="http://www.w3.org/2000/svg" xmlns:xlink="http://www.w3.org/1999/xlink" x="0px" y="0px"
	 width="100%" viewBox="0 0 300 300" enable-background="new 0 0 300 300" xml:space="preserve">
<path fill="#FFFFFF" opacity="1.000000" stroke="none" 
	d="
M81.000000,301.000000 
	C54.344551,301.000000 27.689100,301.000000 1.016825,301.000000 
	C1.016825,201.053284 1.016825,101.106560 1.016825,1.079920 
	C100.904594,1.079920 200.809280,1.079920 300.856995,1.079920 
	C300.856995,100.999855 300.856995,200.999893 300.856995,301.000000 
	C281.254059,301.000000 261.595673,301.000000 241.468658,300.541168 
	C240.981445,296.426575 240.962891,292.770782 240.961426,288.638855 
	C240.967621,277.737518 240.956726,267.312408 240.967926,256.428955 
	C240.974289,251.019409 240.958527,246.068192 240.959991,240.642349 
	C240.965637,235.077621 240.954041,229.987549 240.964569,224.436844 
	C240.986710,219.105286 240.986710,214.234344 240.986710,208.961594 
	C235.143097,208.961594 230.059586,208.961594 224.986298,208.497925 
	C224.996521,203.109390 224.996521,198.184525 224.996521,192.854935 
	C219.226120,192.854935 214.090149,192.854935 208.966339,192.397491 
	C208.965363,186.975052 208.952240,182.010086 209.411423,177.029785 
	C214.925690,177.001022 219.967667,176.987579 225.476105,176.982666 
	C229.897079,176.990677 233.874741,177.226807 237.791748,176.843369 
	C238.945892,176.730377 240.749359,174.932205 240.843231,173.790268 
	C241.192902,169.536682 240.955368,165.234848 240.961456,160.489410 
	C240.960449,155.021622 240.936234,150.015533 240.944702,144.542114 
	C240.961777,139.008545 240.946167,133.942307 240.962555,128.418457 
	C240.973038,123.015587 240.951538,118.070343 240.951538,112.650558 
	C240.950378,107.084938 240.927734,101.993851 240.945282,96.443573 
	C240.935089,90.994553 240.884705,86.004723 240.902740,80.550919 
	C240.971161,75.163506 240.971161,70.240074 240.971161,65.166054 
	C235.240295,65.166054 230.115021,65.166054 224.527878,65.096207 
	C219.043991,65.073105 214.021973,65.119835 208.538330,65.091888 
	C203.051178,65.066994 198.025620,65.116783 192.538071,65.096420 
	C187.050827,65.072723 182.025589,65.119171 176.537903,65.097885 
	C171.050201,65.075241 166.024948,65.120346 160.536957,65.095703 
	C155.047729,65.072815 150.021240,65.119675 144.532806,65.095917 
	C139.044617,65.072334 134.018372,65.119362 128.530518,65.095055 
	C123.048172,65.071312 118.027443,65.118904 112.544113,65.095764 
	C107.052422,65.072182 102.023346,65.119339 96.531815,65.095100 
	C91.140938,65.023705 86.212524,65.023705 81.166557,65.023705 
	C81.166557,70.743279 81.166557,75.874496 81.094711,81.467163 
	C81.065155,86.936951 81.107437,91.945305 81.092377,97.420883 
	C81.080162,108.262886 81.125282,118.637650 81.107430,129.474915 
	C81.087952,134.975250 81.131439,140.013092 81.109039,145.510132 
	C81.074860,150.945251 81.106560,155.921188 81.088867,161.368744 
	C81.039467,166.745026 81.039467,171.649704 81.039467,177.021606 
	C92.108162,177.021606 102.512550,177.021606 112.948547,177.485870 
	C112.973473,182.980301 112.966789,188.010437 112.495323,193.023193 
	C107.116982,193.005798 102.203407,193.005798 96.826012,193.005798 
	C96.826012,198.652481 96.826012,203.704544 96.826012,209.216339 
	C91.302238,209.216339 86.252876,209.216339 81.136505,209.216339 
	C81.136505,225.439972 81.136505,241.185501 81.085632,257.400757 
	C81.069214,268.269562 81.103668,278.668610 81.079071,289.520630 
	C81.013344,293.649078 81.006668,297.324524 81.000000,301.000000 
z"/>
<path fill="#000000" opacity="1.000000" stroke="none" 
	d="
M193.000000,301.000000 
	C171.979111,301.000000 150.958206,301.000000 129.468292,300.539154 
	C128.943756,296.386047 128.888260,292.693817 128.905487,288.538330 
	C128.929581,277.716309 128.880951,267.357483 128.907562,256.535492 
	C128.976013,245.753754 128.969254,235.435196 129.429871,225.064651 
	C134.831604,225.012650 139.765945,225.012650 145.096664,225.012650 
	C145.096664,246.576523 145.096664,267.619141 145.096664,289.014130 
	C161.278885,289.014130 177.049438,289.014130 192.900024,289.467651 
	C192.986679,293.614136 192.993347,297.307068 193.000000,301.000000 
z"/>
<path fill="#179685" opacity="1.000000" stroke="none" 
	d="
M81.466858,301.000000 
	C81.006668,297.324524 81.013344,293.649078 81.534897,289.496735 
	C86.976570,289.016296 91.903374,289.012726 96.899078,289.464569 
	C96.978653,293.613312 96.989326,297.306671 97.000000,301.000000 
	C91.977905,301.000000 86.955818,301.000000 81.466858,301.000000 
z"/>
<path fill="#E0E0DC" opacity="1.000000" stroke="none" 
	d="
M97.466858,301.000000 
	C96.989326,297.306671 96.978653,293.613312 97.009689,289.486511 
	C97.051407,289.053040 97.273148,289.012604 97.716919,289.007507 
	C103.118301,288.989441 108.075920,288.976471 113.040344,288.941254 
	C113.047157,288.918976 113.092911,288.908539 113.063583,289.374054 
	C113.022827,293.559723 113.011414,297.279846 113.000000,301.000000 
	C107.977905,301.000000 102.955818,301.000000 97.466858,301.000000 
z"/>
<path fill="#C5C3C4" opacity="1.000000" stroke="none" 
	d="
M113.466858,301.000000 
	C113.011414,297.279846 113.022827,293.559723 113.520889,289.409363 
	C118.949272,288.986633 123.891029,288.994080 128.832764,289.001556 
	C128.888260,292.693817 128.943756,296.386047 128.999634,300.539154 
	C123.977905,301.000000 118.955818,301.000000 113.466858,301.000000 
z"/>
<path fill="#C5C3C4" opacity="1.000000" stroke="none" 
	d="
M193.466858,301.000000 
	C192.993347,297.307068 192.986679,293.614136 192.963943,289.386078 
	C192.947861,288.850952 193.134064,288.759766 193.585266,288.844940 
	C199.014130,288.959229 203.991776,288.988312 208.978073,289.476868 
	C208.991150,293.624237 208.995575,297.312103 209.000000,301.000000 
	C203.977905,301.000000 198.955811,301.000000 193.466858,301.000000 
z"/>
<path fill="#E0E0DC" opacity="1.000000" stroke="none" 
	d="
M209.466858,301.000000 
	C208.995575,297.312103 208.991150,293.624237 208.993042,289.469330 
	C208.999359,289.002319 209.027664,288.988770 209.491608,288.993286 
	C214.957001,288.967285 219.958466,288.936798 224.992615,288.949463 
	C225.025299,288.992615 225.056274,289.096405 225.034988,289.550537 
	C225.009140,293.669769 225.004578,297.334900 225.000000,301.000000 
	C219.977905,301.000000 214.955811,301.000000 209.466858,301.000000 
z"/>
<path fill="#20F9E8" opacity="1.000000" stroke="none" 
	d="
M225.466858,301.000000 
	C225.004578,297.334900 225.009140,293.669769 225.496399,289.512634 
	C230.967514,289.052094 235.955933,289.083557 240.944336,289.115021 
	C240.962891,292.770782 240.981445,296.426575 241.000000,300.541168 
	C235.977905,301.000000 230.955811,301.000000 225.466858,301.000000 
z"/>
<path fill="#CCBE00" opacity="1.000000" stroke="none" 
	d="
M240.834305,81.014893 
	C240.884705,86.004723 240.935089,90.994553 240.487213,96.480957 
	C234.995575,97.039680 230.002228,97.101822 224.545242,97.099167 
	C219.056412,97.077553 214.031219,97.120728 208.540894,97.098343 
	C197.715286,97.077591 187.354782,97.122406 176.531891,97.100098 
	C171.042969,97.076622 166.016434,97.120262 160.527466,97.098053 
	C155.026672,96.967087 149.988297,96.901970 144.965866,96.381317 
	C144.977753,90.953049 144.973694,85.980316 144.984695,81.003723 
	C144.999771,80.999870 145.031113,80.991806 145.496307,80.994438 
	C151.010330,80.984543 156.059143,80.972008 161.567474,80.976898 
	C166.982330,80.982399 171.937683,80.970482 177.366760,80.971405 
	C182.929901,80.976578 188.019302,80.968895 193.568085,80.978661 
	C198.982040,80.984505 203.936630,80.972893 209.364899,80.972977 
	C214.903763,80.984085 219.968964,80.983505 225.498428,80.988556 
	C230.919907,81.001091 235.877106,81.007996 240.834305,81.014893 
z"/>
<path fill="#179685" opacity="1.000000" stroke="none" 
	d="
M81.136505,256.931030 
	C81.136505,241.185501 81.136505,225.439972 81.136505,209.216339 
	C86.252876,209.216339 91.302238,209.216339 96.826012,209.216339 
	C96.826012,203.704544 96.826012,198.652481 96.826012,193.005798 
	C102.203407,193.005798 107.116982,193.005798 112.465714,193.019531 
	C112.900887,193.033249 112.890892,193.092560 112.932060,193.550079 
	C113.008278,198.979599 113.043335,203.951599 113.051071,209.394470 
	C112.987427,214.845520 112.951096,219.825668 112.901794,224.906128 
	C112.888817,225.006424 113.041313,225.139282 112.574181,225.078339 
	C107.177277,225.017380 102.247505,225.017380 97.141029,225.017380 
	C97.141029,230.722504 97.141029,235.848755 97.090179,241.440491 
	C96.984413,246.866287 96.929489,251.826614 96.422310,256.866516 
	C91.025536,256.941071 86.081024,256.936035 81.136505,256.931030 
z"/>
<path fill="#B8B4B8" opacity="1.000000" stroke="none" 
	d="
M112.916939,177.021606 
	C102.512550,177.021606 92.108162,177.021606 81.039467,177.021606 
	C81.039467,171.649704 81.039467,166.745026 81.545235,161.400238 
	C87.059364,160.923477 92.067726,160.886856 97.534668,160.908554 
	C102.872612,160.966873 107.751984,160.966873 112.868698,160.966873 
	C112.868698,155.232590 112.868698,150.151581 112.917053,144.600250 
	C112.963463,139.091217 112.961517,134.052490 113.428665,129.008972 
	C118.904793,128.980392 123.911819,128.956635 128.949356,129.405685 
	C129.000854,134.912460 129.021851,139.946442 129.030731,145.448349 
	C129.023026,150.947266 129.027420,155.978241 129.021576,161.475372 
	C129.019974,166.947861 129.028580,171.954193 128.568054,176.973099 
	C123.038261,176.997635 117.977600,177.009613 112.916939,177.021606 
z"/>
<path fill="#9D8E04" opacity="1.000000" stroke="none" 
	d="
M81.149712,96.953659 
	C81.107437,91.945305 81.065155,86.936951 81.550636,81.465340 
	C87.059334,80.997864 92.040268,80.993645 97.486710,80.992867 
	C102.961082,80.993973 107.969940,80.991646 113.446976,80.992691 
	C118.939552,81.000046 123.963959,81.004013 128.994507,81.003433 
	C129.000671,80.998886 129.013336,80.990303 129.008453,81.457352 
	C128.995026,86.877640 128.986496,91.830872 128.520828,96.864975 
	C123.035683,97.014389 118.007675,97.082947 112.517761,97.090210 
	C107.040878,97.069847 102.025894,97.110779 96.546761,97.096039 
	C91.104973,97.011467 86.127342,96.982567 81.149712,96.953659 
z"/>
<path fill="#ADA7A6" opacity="1.000000" stroke="none" 
	d="
M81.085632,257.400757 
	C86.081024,256.936035 91.025536,256.941071 96.509666,256.940887 
	C97.049278,256.935669 97.172577,257.128510 97.108078,257.583557 
	C97.076225,263.011414 97.108887,267.984222 97.095200,273.424500 
	C97.123619,278.932159 97.198387,283.972382 97.273148,289.012604 
	C97.273148,289.012604 97.051407,289.053040 96.940788,289.031097 
	C91.903374,289.012726 86.976570,289.016296 81.593948,289.043762 
	C81.103668,278.668610 81.069214,268.269562 81.085632,257.400757 
z"/>
<path fill="#F2F2EE" opacity="1.000000" stroke="none" 
	d="
M240.961426,288.638855 
	C235.955933,289.083557 230.967514,289.052094 225.517700,289.058533 
	C225.056274,289.096405 225.025299,288.992615 225.006058,288.491211 
	C224.991211,282.993225 224.995605,277.996613 224.999649,272.533569 
	C224.982788,267.102875 224.966278,262.138611 225.415192,257.106079 
	C230.902344,256.987579 235.924088,256.937408 240.945816,256.887268 
	C240.956726,267.312408 240.967621,277.737518 240.961426,288.638855 
z"/>
<path fill="#B8B4B8" opacity="1.000000" stroke="none" 
	d="
M224.976089,208.961594 
	C230.059586,208.961594 235.143097,208.961594 240.986710,208.961594 
	C240.986710,214.234344 240.986710,219.105286 240.503983,224.473557 
	C235.000336,224.999969 229.979431,225.029053 224.494492,225.036484 
	C219.047058,224.991592 214.063629,224.968369 209.048737,224.482788 
	C209.030945,219.039337 209.044647,214.058212 209.520477,209.045334 
	C214.980453,208.996246 219.978271,208.978912 224.976089,208.961594 
z"/>
<path fill="#9B979B" opacity="1.000000" stroke="none" 
	d="
M81.092377,97.420891 
	C86.127342,96.982567 91.104973,97.011467 96.542740,97.552414 
	C97.003387,108.380440 97.003906,118.696419 97.019714,129.014297 
	C97.034988,129.016205 97.049477,129.047638 96.580032,129.033096 
	C91.130524,129.016510 86.150459,129.014465 81.170395,129.012421 
	C81.125282,118.637650 81.080162,108.262886 81.092377,97.420891 
z"/>
<path fill="#ADA9AB" opacity="1.000000" stroke="none" 
	d="
M208.939117,177.045105 
	C208.952240,182.010086 208.965363,186.975052 209.065704,192.469971 
	C209.152908,192.999893 209.110931,193.242035 208.640991,193.155975 
	C203.126587,193.081650 198.082092,193.093353 193.025406,192.631958 
	C193.003510,187.157288 192.993820,182.155746 193.449432,177.104858 
	C198.924179,177.066910 203.933609,177.078308 208.963440,177.077316 
	C208.983856,177.064926 208.939102,177.045105 208.939117,177.045105 
z"/>
<path fill="#ECECEC" opacity="1.000000" stroke="none" 
	d="
M225.009628,176.974121 
	C219.967667,176.987579 214.925690,177.001022 209.411407,177.029785 
	C208.939102,177.045105 208.983856,177.064926 208.982849,176.602814 
	C208.969315,171.150558 208.956802,166.160416 209.409210,161.094650 
	C214.894669,160.979874 219.915222,160.940704 224.915558,161.006882 
	C224.895325,161.112228 224.991852,161.303864 224.994736,161.751648 
	C225.001633,167.124329 225.005630,172.049240 225.009628,176.974121 
z"/>
<path fill="#E7E7E4" opacity="1.000000" stroke="none" 
	d="
M225.476105,176.982666 
	C225.005630,172.049240 225.001633,167.124329 225.454178,161.644409 
	C230.919891,161.043289 235.929062,160.997192 240.938217,160.951111 
	C240.955368,165.234848 241.192902,169.536682 240.843231,173.790268 
	C240.749359,174.932205 238.945892,176.730377 237.791748,176.843369 
	C233.874741,177.226807 229.897079,176.990677 225.476105,176.982666 
z"/>
<path fill="#ADA9AB" opacity="1.000000" stroke="none" 
	d="
M112.948547,177.485870 
	C117.977600,177.009613 123.038261,176.997635 128.560928,176.987091 
	C129.022934,176.988510 128.998764,177.004150 128.999115,177.470612 
	C128.996948,182.961380 128.994431,187.985687 128.525360,193.006378 
	C123.002853,193.032700 117.946877,193.062622 112.890892,193.092560 
	C112.890892,193.092560 112.900887,193.033249 112.930496,193.036926 
	C112.966789,188.010437 112.973473,182.980301 112.948547,177.485870 
z"/>
<path fill="#20F9E8" opacity="1.000000" stroke="none" 
	d="
M240.967926,256.428955 
	C235.924088,256.937408 230.902344,256.987579 225.421326,257.016724 
	C224.962021,256.995667 225.050018,256.839630 225.033173,256.383545 
	C225.041763,250.928864 225.067215,245.930252 225.552795,240.960663 
	C230.989532,241.032120 235.966156,241.074554 240.942764,241.116989 
	C240.958527,246.068192 240.974289,251.019409 240.967926,256.428955 
z"/>
<path fill="#F0F0F0" opacity="1.000000" stroke="none" 
	d="
M240.959991,240.642349 
	C235.966156,241.074554 230.989532,241.032120 225.511993,240.498428 
	C224.993546,235.024155 224.976028,230.041153 224.958527,225.058136 
	C229.979431,225.029053 235.000336,224.999969 240.481842,224.934174 
	C240.954041,229.987549 240.965637,235.077621 240.959991,240.642349 
z"/>
<path fill="#179685" opacity="1.000000" stroke="none" 
	d="
M224.986298,208.497925 
	C219.978271,208.978912 214.980453,208.996246 209.489655,209.014221 
	C208.996658,209.014893 208.945496,208.943771 208.965179,208.482880 
	C209.026886,203.095352 209.068909,198.168686 209.110931,193.242035 
	C209.110931,193.242035 209.152908,192.999893 209.053528,192.927414 
	C214.090149,192.854935 219.226120,192.854935 224.996521,192.854935 
	C224.996521,198.184525 224.996521,203.109390 224.986298,208.497925 
z"/>
<path fill="#0A02EB" opacity="1.000000" stroke="none" 
	d="
M208.891220,80.961288 
	C203.936630,80.972893 198.982040,80.984505 193.518829,80.517090 
	C193.006836,75.080910 193.003448,70.123741 193.000061,65.166573 
	C198.025620,65.116783 203.051178,65.066994 208.538345,65.547302 
	C208.963699,71.038689 208.927460,75.999985 208.891220,80.961288 
z"/>
<path fill="#D3D3D3" opacity="1.000000" stroke="none" 
	d="
M225.008850,97.163956 
	C230.002228,97.101822 234.995575,97.039680 240.447021,96.940155 
	C240.927734,101.993851 240.950378,107.084938 240.492096,112.596039 
	C235.020187,113.048340 230.029190,113.080612 225.026321,112.639229 
	C225.012573,107.165039 225.010712,102.164497 225.008850,97.163956 
z"/>
<path fill="#A8E61D" opacity="1.000000" stroke="none" 
	d="
M240.902740,80.550919 
	C235.877106,81.007996 230.919907,81.001091 225.485687,80.524094 
	C225.002350,75.091354 224.996048,70.128700 224.989746,65.166054 
	C230.115021,65.166054 235.240295,65.166054 240.971161,65.166054 
	C240.971161,70.240074 240.971161,75.163506 240.902740,80.550919 
z"/>
<path fill="#DBCC00" opacity="1.000000" stroke="none" 
	d="
M224.527893,65.096207 
	C224.996048,70.128700 225.002350,75.091354 225.021393,80.518463 
	C219.968964,80.983505 214.903763,80.984085 209.364899,80.972977 
	C208.927460,75.999985 208.963699,71.038689 208.999939,65.621979 
	C214.021973,65.119835 219.043991,65.073105 224.527893,65.096207 
z"/>
<path fill="#DBCC00" opacity="1.000000" stroke="none" 
	d="
M192.538071,65.096420 
	C193.003448,70.123741 193.006836,75.080910 193.059464,80.499649 
	C188.019302,80.968895 182.929901,80.976578 177.413086,80.509796 
	C176.990555,75.078758 176.995453,70.122192 177.000336,65.165619 
	C182.025589,65.119171 187.050827,65.072723 192.538071,65.096420 
z"/>
<path fill="#4D6DF3" opacity="1.000000" stroke="none" 
	d="
M176.537903,65.097885 
	C176.995453,70.122192 176.990555,75.078758 176.939331,80.496948 
	C171.937683,80.970482 166.982330,80.982399 161.520721,80.515274 
	C161.009537,75.079300 161.004608,70.122368 160.999664,65.165443 
	C166.024948,65.120346 171.050201,65.075241 176.537903,65.097885 
z"/>
<path fill="#DBCC00" opacity="1.000000" stroke="none" 
	d="
M160.536942,65.095703 
	C161.004608,70.122368 161.009537,75.079300 161.061218,80.497849 
	C156.059143,80.972008 151.010330,80.984543 145.484650,80.529022 
	C145.003448,75.096161 144.999115,70.131348 144.994751,65.166527 
	C150.021240,65.119675 155.047729,65.072815 160.536942,65.095703 
z"/>
<path fill="#C2B202" opacity="1.000000" stroke="none" 
	d="
M144.532806,65.095917 
	C144.999115,70.131348 145.003448,75.096161 145.019455,80.526398 
	C145.031113,80.991806 144.999771,80.999870 144.521332,81.000893 
	C139.033035,80.998047 134.023193,80.994171 129.013336,80.990303 
	C129.013336,80.990303 129.000671,80.998886 128.998840,80.536140 
	C128.995392,75.104393 128.993759,70.135399 128.992126,65.166397 
	C134.018372,65.119362 139.044617,65.072334 144.532806,65.095917 
z"/>
<path fill="#A89904" opacity="1.000000" stroke="none" 
	d="
M128.530518,65.095062 
	C128.993759,70.135399 128.995392,75.104393 128.992691,80.540695 
	C123.963959,81.004013 118.939552,81.000046 113.454880,80.527512 
	C112.998650,75.094803 113.002686,70.130653 113.006721,65.166496 
	C118.027443,65.118904 123.048172,65.071312 128.530518,65.095062 
z"/>
<path fill="#82AC1A" opacity="1.000000" stroke="none" 
	d="
M112.544113,65.095764 
	C113.002686,70.130653 112.998650,75.094803 112.986710,80.524139 
	C107.969940,80.991646 102.961082,80.993973 97.478806,80.527679 
	C97.001686,75.094864 96.997978,70.130684 96.994270,65.166496 
	C102.023346,65.119339 107.052422,65.072182 112.544113,65.095764 
z"/>
<path fill="#A89904" opacity="1.000000" stroke="none" 
	d="
M96.531815,65.095100 
	C96.997978,70.130684 97.001686,75.094864 97.013298,80.524246 
	C92.040268,80.993645 87.059334,80.997864 81.622482,81.003906 
	C81.166557,75.874496 81.166557,70.743279 81.166557,65.023705 
	C86.212524,65.023705 91.140938,65.023705 96.531815,65.095100 
z"/>
<path fill="#CFCFCF" opacity="1.000000" stroke="none" 
	d="
M240.961456,160.489410 
	C235.929062,160.997192 230.919891,161.043289 225.451294,161.196625 
	C224.991852,161.303864 224.895325,161.112228 224.943726,160.547058 
	C225.055771,154.976273 225.119415,149.970642 225.638214,144.976746 
	C231.032928,144.995453 235.972458,145.002441 240.912018,145.009445 
	C240.936234,150.015533 240.960449,155.021622 240.961456,160.489410 
z"/>
<path fill="#767276" opacity="1.000000" stroke="none" 
	d="
M97.076088,160.850220 
	C92.067726,160.886856 87.059364,160.923477 81.594635,160.928619 
	C81.106560,155.921188 81.074860,150.945251 81.563568,145.498138 
	C87.062355,145.024353 92.040718,145.021790 97.015785,145.483932 
	C97.033684,150.915833 97.054886,155.883026 97.076088,160.850220 
z"/>
<path fill="#D3D3D3" opacity="1.000000" stroke="none" 
	d="
M240.944702,144.542114 
	C235.972458,145.002441 231.032928,144.995453 225.540314,144.938858 
	C224.987259,144.889252 224.830139,145.028519 224.904999,144.565552 
	C225.005508,139.052185 225.031158,134.001755 225.020630,128.940811 
	C224.984436,128.930283 224.934937,128.987152 225.405655,128.992798 
	C230.894424,128.957657 235.912491,128.916870 240.930542,128.876083 
	C240.946167,133.942307 240.961777,139.008545 240.944702,144.542114 
z"/>
<path fill="#949094" opacity="1.000000" stroke="none" 
	d="
M97.019089,145.019226 
	C92.040718,145.021790 87.062355,145.024353 81.629456,145.038940 
	C81.131439,140.013092 81.087952,134.975250 81.107430,129.474915 
	C86.150459,129.014465 91.130524,129.016510 96.563240,129.494629 
	C97.016907,134.986786 97.017921,140.002884 97.012161,145.013153 
	C97.005371,145.007324 97.019089,145.019211 97.019089,145.019226 
z"/>
<path fill="#100E10" opacity="1.000000" stroke="none" 
	d="
M240.962540,128.418457 
	C235.912491,128.916870 230.894424,128.957657 225.435593,128.531250 
	C225.009277,123.080322 225.023743,118.096596 225.038208,113.112877 
	C230.029190,113.080612 235.020187,113.048340 240.470612,113.070580 
	C240.951538,118.070343 240.973038,123.015587 240.962540,128.418457 
z"/>
<path fill="#20F9E8" opacity="1.000000" stroke="none" 
	d="
M209.027496,209.045990 
	C209.044647,214.058212 209.030945,219.039337 209.007599,224.501221 
	C208.997940,224.981979 208.927246,225.037308 208.466232,225.024078 
	C204.531723,225.007355 201.037231,225.241486 197.590286,224.937195 
	C193.714859,224.595093 192.837204,226.231781 192.929047,229.804840 
	C193.162735,238.896332 193.039856,247.996979 193.036087,257.556152 
	C193.053009,268.265503 193.093536,278.512634 193.134064,288.759766 
	C193.134064,288.759766 192.947861,288.850952 192.883942,288.932556 
	C177.049438,289.014130 161.278885,289.014130 145.096664,289.014130 
	C145.096664,267.619141 145.096664,246.576523 145.096664,225.012650 
	C139.765945,225.012650 134.831604,225.012650 129.415634,225.032837 
	C128.934006,225.053009 128.970154,224.993408 128.979843,224.527313 
	C129.019913,219.089340 129.050278,214.117462 129.056412,209.075256 
	C129.032181,209.004929 128.944397,208.884781 129.414154,208.928726 
	C134.922546,208.927277 139.961166,208.881897 145.464920,208.899445 
	C156.286560,208.920578 166.643097,208.878784 177.462524,208.898987 
	C182.927399,208.938385 187.929352,208.915741 193.401245,208.930862 
	C198.895935,208.960342 203.920715,208.952057 208.945496,208.943756 
	C208.945496,208.943771 208.996658,209.014893 209.027496,209.045990 
z"/>
<path fill="#D6D6D6" opacity="1.000000" stroke="none" 
	d="
M128.948242,225.084839 
	C128.969254,235.435196 128.976013,245.753754 128.451630,256.535583 
	C122.939087,257.006134 117.957703,257.013397 112.985199,256.553101 
	C112.980698,251.086960 112.967300,246.088379 112.970520,240.617477 
	C113.005196,235.143204 113.023254,230.141235 113.041321,225.139282 
	C113.041313,225.139282 112.888817,225.006424 113.369476,224.981384 
	C118.890144,224.968704 123.930145,224.981049 128.970154,224.993408 
	C128.970154,224.993408 128.934006,225.053009 128.948242,225.084839 
z"/>
<path fill="#1EDACD" opacity="1.000000" stroke="none" 
	d="
M112.976311,257.020691 
	C117.957703,257.013397 122.939087,257.006134 128.376404,256.998779 
	C128.880951,267.357483 128.929581,277.716309 128.905487,288.538330 
	C123.891029,288.994080 118.949272,288.986633 113.550217,288.943848 
	C113.092911,288.908539 113.047157,288.918976 113.024933,288.477905 
	C112.945694,283.017639 112.888680,277.998444 112.899994,272.518127 
	C112.989799,267.024567 113.011292,261.992157 113.016556,256.973053 
	C113.000336,256.986359 112.976311,257.020691 112.976311,257.020691 
z"/>
<path fill="#E7E7E4" opacity="1.000000" stroke="none" 
	d="
M112.831665,272.979279 
	C112.888680,277.998444 112.945694,283.017639 113.018120,288.500183 
	C108.075920,288.976471 103.118301,288.989441 97.716919,289.007507 
	C97.198387,283.972382 97.123619,278.932159 97.548721,273.438904 
	C102.976288,272.983643 107.903976,272.981476 112.831665,272.979279 
z"/>
<path fill="#DCD9D8" opacity="1.000000" stroke="none" 
	d="
M193.585266,288.844940 
	C193.093536,278.512634 193.053009,268.265503 193.496658,257.519043 
	C199.014069,256.948853 204.047287,256.877930 209.073059,256.904053 
	C209.065613,257.001068 208.950638,257.158051 208.967590,257.614685 
	C208.998444,263.038116 209.012360,268.004913 209.018036,273.440308 
	C209.015762,278.935516 209.021713,283.962128 209.027649,288.988770 
	C209.027664,288.988770 208.999359,289.002319 208.984390,289.009857 
	C203.991776,288.988312 199.014130,288.959229 193.585266,288.844940 
z"/>
<path fill="#E7E7E4" opacity="1.000000" stroke="none" 
	d="
M209.491608,288.993286 
	C209.021713,283.962128 209.015762,278.935516 209.481903,273.450317 
	C214.969345,272.994507 219.984665,272.997253 225.000000,273.000000 
	C224.995605,277.996613 224.991211,282.993225 224.973358,288.448059 
	C219.958466,288.936798 214.957001,288.967285 209.491608,288.993286 
z"/>
<path fill="#CACACA" opacity="1.000000" stroke="none" 
	d="
M225.026337,112.639229 
	C225.023743,118.096596 225.009277,123.080322 224.964874,128.525604 
	C224.934937,128.987152 224.984436,128.930283 224.550690,128.965942 
	C219.080933,129.055939 214.044907,129.110291 208.545380,129.086823 
	C197.702408,128.953552 187.322937,128.898117 176.961395,128.386993 
	C176.987228,123.286430 176.995132,118.641533 177.386536,113.830505 
	C182.893158,113.442909 188.015366,113.058540 193.139542,113.030342 
	C208.972702,112.943214 208.972992,112.995949 209.006012,97.163902 
	C214.031219,97.120728 219.056412,97.077553 224.545227,97.099167 
	C225.010712,102.164497 225.012573,107.165039 225.026337,112.639229 
z"/>
<path fill="#C5C3C4" opacity="1.000000" stroke="none" 
	d="
M208.540894,97.098343 
	C208.972992,112.995949 208.972702,112.943214 193.139542,113.030342 
	C188.015366,113.058540 182.893158,113.442909 177.384338,113.582504 
	C176.998642,113.500656 176.993896,113.004578 176.995697,112.537766 
	C176.996414,107.103043 176.995346,102.135124 176.994278,97.167213 
	C187.354782,97.122406 197.715286,97.077591 208.540894,97.098343 
z"/>
<path fill="#CACACA" opacity="1.000000" stroke="none" 
	d="
M176.531891,97.100098 
	C176.995346,102.135124 176.996414,107.103043 176.529602,112.535812 
	C171.044052,112.972466 166.026428,112.944252 161.006348,112.454803 
	C160.999252,107.050339 160.994583,102.107124 160.989899,97.163910 
	C166.016434,97.120262 171.042969,97.076622 176.531891,97.100098 
z"/>
<path fill="#D6D6D6" opacity="1.000000" stroke="none" 
	d="
M160.527466,97.098053 
	C160.994583,102.107124 160.999252,107.050339 160.978729,112.490730 
	C160.953552,112.987907 160.931473,113.075798 160.470337,113.041992 
	C155.030090,113.034035 150.050980,113.059875 145.049561,112.614349 
	C145.036041,107.148933 145.044846,102.154884 145.020660,97.082108 
	C144.987671,97.003365 144.949921,96.836853 144.949921,96.836853 
	C149.988297,96.901970 155.026672,96.967087 160.527466,97.098053 
z"/>
<path fill="#B4A602" opacity="1.000000" stroke="none" 
	d="
M129.008453,81.457352 
	C134.023193,80.994171 139.033035,80.998047 144.506256,81.004745 
	C144.973694,85.980316 144.977753,90.953049 144.965866,96.381317 
	C144.949921,96.836853 144.987671,97.003365 144.554199,97.017593 
	C139.091797,97.076317 134.062881,97.120827 129.041077,97.066917 
	C129.048218,96.968506 128.977966,96.784111 128.977966,96.784111 
	C128.986496,91.830872 128.995026,86.877640 129.008453,81.457352 
z"/>
<path fill="#20F9E8" opacity="1.000000" stroke="none" 
	d="
M112.953903,241.089798 
	C112.967300,246.088379 112.980698,251.086960 112.985199,256.553101 
	C112.976311,257.020691 113.000336,256.986359 112.547928,256.989197 
	C107.121201,257.037537 102.146889,257.083038 97.172577,257.128510 
	C97.172577,257.128510 97.049278,256.935669 96.961922,256.861298 
	C96.929489,251.826614 96.984413,246.866287 97.545502,241.451233 
	C103.019081,241.027588 107.986488,241.058685 112.953903,241.089798 
z"/>
<path fill="#B8B4B8" opacity="1.000000" stroke="none" 
	d="
M112.932060,193.550079 
	C117.946877,193.062622 123.002853,193.032700 128.528717,193.471893 
	C128.980545,198.922272 128.962479,203.903534 128.944397,208.884781 
	C128.944397,208.884781 129.032181,209.004929 128.585571,209.021698 
	C123.118767,209.000168 118.098579,208.961884 113.078384,208.923584 
	C113.043335,203.951599 113.008278,198.979599 112.932060,193.550079 
z"/>
<path fill="#F0F0F0" opacity="1.000000" stroke="none" 
	d="
M112.970520,240.617477 
	C107.986488,241.058685 103.019081,241.027588 97.596344,240.985748 
	C97.141029,235.848755 97.141029,230.722504 97.141029,225.017380 
	C102.247505,225.017380 107.177277,225.017380 112.574188,225.078339 
	C113.023254,230.141235 113.005196,235.143204 112.970520,240.617477 
z"/>
<path fill="#19C8AC" opacity="1.000000" stroke="none" 
	d="
M113.051071,209.394470 
	C118.098579,208.961884 123.118767,209.000168 128.609802,209.092041 
	C129.050278,214.117462 129.019913,219.089340 128.979843,224.527298 
	C123.930145,224.981049 118.890144,224.968704 113.382454,224.881104 
	C112.951096,219.825668 112.987427,214.845520 113.051071,209.394470 
z"/>
<path fill="#949094" opacity="1.000000" stroke="none" 
	d="
M112.979668,97.151505 
	C118.007675,97.082947 123.035683,97.014389 128.520828,96.864975 
	C128.977966,96.784111 129.048218,96.968506 129.029785,97.522522 
	C129.052475,103.053352 129.093582,108.030167 129.084076,113.471115 
	C129.032761,118.961327 129.032043,123.987389 129.013107,128.979492 
	C128.994888,128.945526 128.918854,128.932861 128.918854,128.932861 
	C123.911819,128.956635 118.904793,128.980392 113.448524,129.014374 
	C112.999290,129.024597 112.975716,129.054916 112.985168,128.581360 
	C112.989632,117.789047 112.984650,107.470276 112.979668,97.151505 
z"/>
<path fill="#CFCFCF" opacity="1.000000" stroke="none" 
	d="
M129.030060,176.974518 
	C129.028580,171.954193 129.019974,166.947861 129.484894,161.471985 
	C134.972641,161.001831 139.986847,161.001221 145.000595,161.467102 
	C145.031799,166.875046 145.063461,171.816513 144.628326,176.836182 
	C139.107285,176.944305 134.053024,176.974228 128.998764,177.004150 
	C128.998764,177.004150 129.022934,176.988510 129.030060,176.974518 
z"/>
<path fill="#CACACA" opacity="1.000000" stroke="none" 
	d="
M145.001053,161.000610 
	C139.986847,161.001221 134.972641,161.001831 129.495117,161.005829 
	C129.027420,155.978241 129.023026,150.947266 129.492798,145.455048 
	C134.977371,144.996872 139.987762,144.999969 144.998901,145.469574 
	C145.005051,150.962982 145.010468,155.989883 145.010056,161.013565 
	C145.004211,161.010361 145.001053,161.000610 145.001053,161.000610 
z"/>
<path fill="#524E52" opacity="1.000000" stroke="none" 
	d="
M97.534668,160.908539 
	C97.054886,155.883026 97.033684,150.915833 97.015785,145.483917 
	C97.019089,145.019211 97.005371,145.007324 97.476906,145.006287 
	C102.921860,145.027039 107.895279,145.048813 112.868698,145.070572 
	C112.868698,150.151581 112.868698,155.232590 112.868698,160.966873 
	C107.751984,160.966873 102.872612,160.966873 97.534668,160.908539 
z"/>
<path fill="#D3D3D3" opacity="1.000000" stroke="none" 
	d="
M144.998169,145.003052 
	C139.987762,144.999969 134.977371,144.996872 129.504913,144.987091 
	C129.021851,139.946442 129.000854,134.912460 128.949356,129.405670 
	C128.918854,128.932861 128.994888,128.945526 129.477097,128.974548 
	C135.005325,128.983414 140.051346,128.963272 145.057434,128.962540 
	C145.017517,128.981934 145.056885,128.902374 145.039719,129.375641 
	C145.014420,134.900299 145.006302,139.951675 144.998169,145.003052 
z"/>
<path fill="#767276" opacity="1.000000" stroke="none" 
	d="
M112.917053,144.600250 
	C107.895279,145.048813 102.921860,145.027039 97.483688,145.012115 
	C97.017921,140.002884 97.016907,134.986786 97.032684,129.509155 
	C97.049477,129.047638 97.034988,129.016205 97.486069,129.010925 
	C102.949997,129.022064 107.962860,129.038498 112.975716,129.054916 
	C112.975716,129.054916 112.999290,129.024597 112.979431,129.019196 
	C112.961517,134.052490 112.963463,139.091217 112.917053,144.600250 
z"/>
<path fill="#A7A3A3" opacity="1.000000" stroke="none" 
	d="
M112.985168,128.581360 
	C107.962860,129.038498 102.949997,129.022064 97.470787,129.009003 
	C97.003906,118.696419 97.003387,108.380440 97.006897,97.608093 
	C102.025894,97.110779 107.040878,97.069847 112.517761,97.090210 
	C112.984650,107.470276 112.989632,117.789047 112.985168,128.581360 
z"/>
<path fill="#F9F8F7" opacity="1.000000" stroke="none" 
	d="
M97.108078,257.583557 
	C102.146889,257.083038 107.121201,257.037537 112.564148,256.975891 
	C113.011292,261.992157 112.989799,267.024567 112.899994,272.518127 
	C107.903976,272.981476 102.976288,272.983643 97.595070,272.971436 
	C97.108887,267.984222 97.076225,263.011414 97.108078,257.583557 
z"/>
<path fill="#F9F8F7" opacity="1.000000" stroke="none" 
	d="
M224.999649,272.533569 
	C219.984665,272.997253 214.969345,272.994507 209.490143,272.981750 
	C209.012360,268.004913 208.998444,263.038116 209.434433,257.550934 
	C214.939560,256.966888 219.994797,256.903259 225.050018,256.839630 
	C225.050018,256.839630 224.962021,256.995667 224.955902,257.085022 
	C224.966278,262.138611 224.982788,267.102875 224.999649,272.533569 
z"/>
<path fill="#19C8AC" opacity="1.000000" stroke="none" 
	d="
M225.033173,256.383545 
	C219.994797,256.903259 214.939560,256.966888 209.417480,257.094299 
	C208.950638,257.158051 209.065613,257.001068 209.045868,256.449493 
	C208.993164,245.611053 208.960205,235.324188 208.927246,225.037308 
	C208.927246,225.037308 208.997940,224.981979 209.039078,224.963562 
	C214.063629,224.968369 219.047058,224.991592 224.494507,225.036484 
	C224.976028,230.041153 224.993546,235.024155 225.051865,240.469406 
	C225.067215,245.930252 225.041763,250.928864 225.033173,256.383545 
z"/>
<path fill="#F0F0F0" opacity="1.000000" stroke="none" 
	d="
M208.944305,161.170273 
	C208.956802,166.160416 208.969315,171.150558 208.962433,176.615204 
	C203.933609,177.078308 198.924179,177.066910 192.986481,177.047028 
	C187.014008,177.069763 181.969833,177.100967 176.465454,177.076599 
	C171.004974,176.958496 166.004730,176.895935 161.002991,176.377075 
	C161.005966,170.959106 161.010422,165.997452 161.009354,161.017761 
	C161.003815,160.999725 160.989960,160.965439 161.458099,160.978149 
	C166.991119,160.974701 172.055984,160.958527 177.579407,160.970398 
	C183.023010,160.944366 188.008057,160.890244 193.455109,160.910278 
	C198.963211,160.935257 204.009262,160.886108 208.992188,160.908508 
	C208.929062,160.980042 208.944290,161.170273 208.944305,161.170273 
z"/>
<path fill="#A7A3A3" opacity="1.000000" stroke="none" 
	d="
M176.925659,177.132156 
	C181.969833,177.100967 187.014008,177.069763 192.521149,177.096375 
	C192.993820,182.155746 193.003510,187.157288 193.011047,193.089539 
	C192.983047,198.977844 192.957184,203.935471 192.931320,208.893097 
	C187.929352,208.915741 182.927399,208.938385 177.462677,208.444214 
	C176.984589,202.915863 176.969269,197.904282 176.971649,192.435516 
	C176.968124,187.029602 176.946899,182.080872 176.925659,177.132156 
z"/>
<path fill="#1CBBB2" opacity="1.000000" stroke="none" 
	d="
M193.401245,208.930862 
	C192.957184,203.935471 192.983047,198.977844 193.023254,193.562637 
	C198.082092,193.093353 203.126587,193.081650 208.640991,193.155975 
	C209.068909,198.168686 209.026886,203.095352 208.965179,208.482880 
	C203.920715,208.952057 198.895935,208.960342 193.401245,208.930862 
z"/>
<path fill="#680000" opacity="1.000000" stroke="none" 
	d="
M225.085159,144.927139 
	C225.119415,149.970642 225.055771,154.976273 224.963959,160.441711 
	C219.915222,160.940704 214.894669,160.979874 209.409210,161.094650 
	C208.944290,161.170273 208.929062,160.980042 208.974731,160.452484 
	C209.031235,154.990173 209.042068,150.055420 209.034439,145.063583 
	C209.015976,145.006516 208.963043,144.898895 209.430634,144.931335 
	C214.875534,144.985367 219.852844,145.006943 224.830139,145.028519 
	C224.830139,145.028519 224.987259,144.889252 225.085159,144.927139 
z"/>
<path fill="#A7A3A3" opacity="1.000000" stroke="none" 
	d="
M128.999115,177.470612 
	C134.053024,176.974228 139.107285,176.944305 144.655731,176.933823 
	C145.149933,176.953262 145.021744,177.108490 145.012543,177.567642 
	C145.016937,182.983276 145.030502,187.939758 145.030334,193.369141 
	C145.010986,198.840195 145.005386,203.838364 144.999802,208.836517 
	C139.961166,208.881897 134.922546,208.927277 129.414154,208.928726 
	C128.962479,203.903534 128.980545,198.922272 128.995255,193.475525 
	C128.994431,187.985687 128.996948,182.961380 128.999115,177.470612 
z"/>
<path fill="#000000" opacity="1.000000" stroke="none" 
	d="
M224.904999,144.565552 
	C219.852844,145.006943 214.875534,144.985367 209.443573,144.474762 
	C208.995590,139.045380 209.002243,134.105026 209.008896,129.164658 
	C214.044907,129.110291 219.080933,129.055939 224.586884,128.976471 
	C225.031158,134.001755 225.005508,139.052185 224.904999,144.565552 
z"/>
<path fill="#A19D9D" opacity="1.000000" stroke="none" 
	d="
M145.464920,208.899445 
	C145.005386,203.838364 145.010986,198.840195 145.493881,193.408295 
	C156.298782,192.947281 166.626358,192.919998 176.953949,192.892715 
	C176.969269,197.904282 176.984589,202.915863 176.999771,208.382202 
	C166.643097,208.878784 156.286560,208.920578 145.464920,208.899445 
z"/>
<path fill="#1EDACD" opacity="1.000000" stroke="none" 
	d="
M208.466232,225.024078 
	C208.960205,235.324188 208.993164,245.611053 209.053314,256.352478 
	C204.047287,256.877930 199.014069,256.948853 193.520264,257.056854 
	C193.039856,247.996979 193.162735,238.896332 192.929047,229.804840 
	C192.837204,226.231781 193.714859,224.595093 197.590286,224.937195 
	C201.037231,225.241486 204.531723,225.007355 208.466232,225.024078 
z"/>
<path fill="#090909" opacity="1.000000" stroke="none" 
	d="
M208.545380,129.086823 
	C209.002243,134.105026 208.995590,139.045380 208.975983,144.442322 
	C208.963043,144.898895 209.015976,145.006516 208.562912,145.021790 
	C203.249130,145.037048 198.388412,145.037048 192.993088,145.037048 
	C192.993088,150.741776 192.993088,155.788956 192.993088,160.836136 
	C188.008057,160.890244 183.023010,160.944366 177.523468,160.510635 
	C176.990326,155.055099 176.971695,150.087402 176.967224,144.645859 
	C177.007706,139.169022 177.034012,134.166016 177.025711,129.084900 
	C176.991089,129.006790 176.943481,128.842682 176.943481,128.842682 
	C187.322937,128.898117 197.702408,128.953552 208.545380,129.086823 
z"/>
<path fill="#CFCFCF" opacity="1.000000" stroke="none" 
	d="
M160.981171,112.951981 
	C166.026428,112.944252 171.044052,112.972466 176.527802,113.002625 
	C176.993896,113.004578 176.998642,113.500656 177.000839,113.748650 
	C176.995132,118.641533 176.987228,123.286430 176.961395,128.386993 
	C176.943481,128.842682 176.991089,129.006790 176.559753,129.011871 
	C171.066895,128.994904 166.005386,128.972855 160.981201,128.943710 
	C161.018524,128.936615 161.071625,128.990952 161.038879,128.525879 
	C160.981232,123.065796 160.956360,118.070793 160.931473,113.075798 
	C160.931473,113.075798 160.953552,112.987907 160.981171,112.951981 
z"/>
<path fill="#D3D3D3" opacity="1.000000" stroke="none" 
	d="
M129.134705,113.006981 
	C129.093582,108.030167 129.052475,103.053352 129.022659,97.620934 
	C134.062881,97.120827 139.091797,97.076317 144.587189,97.096329 
	C145.044846,102.154884 145.036041,107.148933 145.040802,112.591530 
	C145.054367,113.040085 145.099487,113.058434 144.626373,113.040466 
	C139.147079,113.017326 134.140884,113.012154 129.134705,113.006981 
z"/>
<path fill="#100E10" opacity="1.000000" stroke="none" 
	d="
M160.470337,113.041992 
	C160.956360,118.070793 160.981232,123.065796 160.567505,128.531586 
	C155.104874,128.969040 150.080887,128.935715 145.056885,128.902374 
	C145.056885,128.902374 145.017517,128.981934 145.013550,128.501495 
	C145.039551,123.033508 145.069519,118.045967 145.099487,113.058434 
	C145.099487,113.058434 145.054367,113.040085 145.063110,113.062897 
	C150.050980,113.059875 155.030090,113.034035 160.470337,113.041992 
z"/>
<path fill="#D6D6D6" opacity="1.000000" stroke="none" 
	d="
M144.626373,113.040466 
	C145.069519,118.045967 145.039551,123.033508 145.053467,128.482086 
	C140.051346,128.963272 135.005325,128.983414 129.495316,129.008514 
	C129.032043,123.987389 129.032761,118.961327 129.084091,113.471115 
	C134.140884,113.012154 139.147079,113.017326 144.626373,113.040466 
z"/>
<path fill="#ECECEC" opacity="1.000000" stroke="none" 
	d="
M161.014893,161.035767 
	C161.010422,165.997452 161.005966,170.959106 160.540405,176.446930 
	C155.060120,177.018219 150.040939,177.063354 145.021744,177.108490 
	C145.021744,177.108490 145.149933,176.953262 145.122528,176.855621 
	C145.063461,171.816513 145.031799,166.875046 145.000595,161.467102 
	C145.001053,161.000610 145.004211,161.010361 145.475159,161.006714 
	C150.969025,161.013962 155.991959,161.024872 161.014893,161.035767 
z"/>
<path fill="#D6D6D6" opacity="1.000000" stroke="none" 
	d="
M161.009354,161.017746 
	C155.991959,161.024872 150.969025,161.013962 145.480988,161.009918 
	C145.010468,155.989883 145.005051,150.962982 144.998901,145.469574 
	C145.006302,139.951675 145.014420,134.900299 145.039719,129.375641 
	C150.080887,128.935715 155.104874,128.969040 160.600250,128.996674 
	C161.071625,128.990952 161.018524,128.936615 161.004166,129.412903 
	C161.007858,134.888275 161.025909,139.887390 161.030487,145.360260 
	C161.007996,150.877838 160.998978,155.921646 160.989960,160.965439 
	C160.989960,160.965439 161.003815,160.999725 161.009354,161.017746 
z"/>
<path fill="#179685" opacity="1.000000" stroke="none" 
	d="
M145.012543,177.567642 
	C150.040939,177.063354 155.060120,177.018219 160.541901,176.903229 
	C166.004730,176.895935 171.004974,176.958496 176.465454,177.076599 
	C176.946899,182.080872 176.968124,187.029602 176.971649,192.435516 
	C166.626358,192.919998 156.298782,192.947281 145.507629,192.935394 
	C145.030502,187.939758 145.016937,182.983276 145.012543,177.567642 
z"/>
<path fill="#590000" opacity="1.000000" stroke="none" 
	d="
M193.455109,160.910278 
	C192.993088,155.788956 192.993088,150.741776 192.993088,145.037048 
	C198.388412,145.037048 203.249130,145.037048 208.581375,145.078857 
	C209.042068,150.055420 209.031235,154.990173 209.037857,160.380951 
	C204.009262,160.886108 198.963211,160.935257 193.455109,160.910278 
z"/>
<path fill="#D3D3D3" opacity="1.000000" stroke="none" 
	d="
M161.458099,160.978149 
	C160.998978,155.921646 161.007996,150.877838 161.491943,145.411133 
	C166.962265,145.032043 171.957657,145.075882 176.953064,145.119705 
	C176.971695,150.087402 176.990326,155.055099 177.064911,160.482574 
	C172.055984,160.958527 166.991119,160.974701 161.458099,160.978149 
z"/>
<path fill="#100E10" opacity="1.000000" stroke="none" 
	d="
M176.967224,144.645859 
	C171.957657,145.075882 166.962265,145.032043 161.505402,144.937347 
	C161.025909,139.887390 161.007858,134.888275 160.966827,129.419983 
	C166.005386,128.972855 171.066895,128.994904 176.594376,129.089996 
	C177.034012,134.166016 177.007706,139.169022 176.967224,144.645859 
z"/>
</svg>